<svg width="33" height="33" viewBox="0 0 33 33" fill="none" xmlns="http://www.w3.org/2000/svg">
<path d="M29.6851 15.7662C29.6851 23.4113 23.4875 29.609 15.8423 29.609C8.19715 29.609 1.99951 23.4113 1.99951 15.7662C1.99951 8.12098 8.19715 1.92334 15.8423 1.92334C23.4875 1.92334 29.6851 8.12098 29.6851 15.7662Z" stroke="#C35AB8" stroke-width="1.5"/>
<path d="M19.1488 8.31689H17.1172C16.2192 8.31689 15.358 8.7093 14.723 9.40779C14.088 10.1063 13.7313 11.0536 13.7313 12.0414V13.5313H11.6997V16.5109H13.7313V23.2151H16.4401V16.5109H18.4716L19.1488 13.5313H16.4401V12.0414C16.4401 11.8439 16.5114 11.6544 16.6384 11.5147C16.7654 11.375 16.9376 11.2965 17.1172 11.2965H19.1488V8.31689Z" fill="#C35AB8"/>
</svg>
