<svg width="32" height="32" viewBox="0 0 32 32" fill="none" xmlns="http://www.w3.org/2000/svg">
<path d="M9.91319 2.47393H23.4036C26.7423 2.47393 29.4488 5.18046 29.4488 8.51915V22.0096C29.4488 25.3483 26.7423 28.0548 23.4036 28.0548H9.91319C6.57451 28.0548 3.86797 25.3483 3.86797 22.0096V8.51915C3.86797 5.18046 6.57451 2.47393 9.91319 2.47393Z" stroke="#C35AB8" stroke-width="1.4" stroke-linecap="round" stroke-linejoin="round"/>
<path d="M21.4922 14.5478C21.643 15.5646 21.4693 16.603 20.9959 17.5154C20.5225 18.4278 19.7734 19.1676 18.8553 19.6298C17.9371 20.0919 16.8966 20.2528 15.8818 20.0895C14.867 19.9262 13.9295 19.447 13.2026 18.7202C12.4758 17.9934 11.9967 17.0558 11.8334 16.041C11.6701 15.0262 11.8309 13.9857 12.293 13.0675C12.7552 12.1494 13.495 11.4003 14.4074 10.9269C15.3198 10.4535 16.3582 10.2798 17.375 10.4306C18.4122 10.5844 19.3723 11.0677 20.1137 11.8091C20.8551 12.5505 21.3384 13.5107 21.4922 14.5478Z" stroke="#C35AB8" stroke-width="1.4" stroke-linecap="round" stroke-linejoin="round"/>
<path d="M25.0698 8.04915C25.1137 8.34461 25.0632 8.64636 24.9256 8.91148C24.7881 9.1766 24.5704 9.3916 24.3036 9.52588C24.0368 9.66017 23.7345 9.70691 23.4396 9.65946C23.1447 9.61201 22.8722 9.47278 22.661 9.26157C22.4498 9.05037 22.3106 8.77795 22.2632 8.48305C22.2157 8.18816 22.2624 7.88581 22.3967 7.61901C22.531 7.35221 22.746 7.13455 23.0111 6.99698C23.2763 6.85942 23.578 6.80895 23.8735 6.85276C24.1748 6.89745 24.4538 7.03789 24.6693 7.25333C24.8847 7.46876 25.0252 7.74777 25.0698 8.04915Z" fill="#C35AB8"/>
</svg>
