<svg width="32" height="33" viewBox="0 0 32 33" fill="none" xmlns="http://www.w3.org/2000/svg">
<path d="M29.1795 15.7662C29.1795 23.4389 22.9595 29.659 15.2867 29.659C7.61387 29.659 1.39385 23.4389 1.39385 15.7662C1.39385 8.09337 7.61387 1.87334 15.2867 1.87334C22.9595 1.87334 29.1795 8.09337 29.1795 15.7662Z" stroke="#C35AB8" stroke-width="1.4"/>
<path d="M8.05664 11.266C8.05664 14.2614 8.05664 17.2616 8.05664 20.257C8.80789 20.257 9.55435 20.257 10.3056 20.257C10.3056 17.9076 10.3056 15.5438 10.3056 13.1944C11.8033 13.2087 13.3154 13.18 14.8179 13.2087C15.684 13.1704 16.4208 13.96 16.4065 14.8069C16.4304 16.6252 16.4065 18.4531 16.4208 20.2666C17.1721 20.2666 17.9186 20.2666 18.6698 20.2666C18.6698 18.1851 18.6698 16.1036 18.6698 14.0078C18.7846 12.534 17.3874 11.2373 15.9519 11.2756C13.3058 11.2516 10.674 11.2803 8.05664 11.266Z" fill="#C35AB8"/>
<path d="M20.2681 11.2661C20.2681 14.2615 20.2681 17.2617 20.2681 20.2572C21.0193 20.2572 21.7658 20.2572 22.517 20.2572C22.517 17.2617 22.517 14.2615 22.517 11.2661C21.7658 11.2661 21.0145 11.2661 20.2681 11.2661Z" fill="#C35AB8"/>
<path d="M12.2246 14.7974C12.2246 16.6109 12.2246 18.4435 12.2246 20.2571C12.9759 20.2571 13.7223 20.2571 14.4736 20.2571C14.4736 18.4388 14.4736 16.6109 14.4736 14.7974C13.7223 14.7974 12.9759 14.7974 12.2246 14.7974Z" fill="#C35AB8"/>
</svg>
