<svg width="32" height="33" viewBox="0 0 32 33" fill="none" xmlns="http://www.w3.org/2000/svg">
<path d="M29.1795 15.7662C29.1795 23.4389 22.9595 29.659 15.2867 29.659C7.61387 29.659 1.39385 23.4389 1.39385 15.7662C1.39385 8.09337 7.61387 1.87334 15.2867 1.87334C22.9595 1.87334 29.1795 8.09337 29.1795 15.7662Z" stroke="#C35AB8" stroke-width="1.4"/>
<path d="M15.7772 9.05834C16.4683 9.04834 17.1541 9.05334 17.8399 9.04834C17.8821 9.81333 18.1723 10.5933 18.7632 11.1333C19.354 11.6883 20.1876 11.9433 21 12.0283V14.0433C20.2403 14.0183 19.4754 13.8683 18.7843 13.5583C18.4836 13.4283 18.204 13.2633 17.9296 13.0933C17.9244 14.5533 17.9349 16.0133 17.9191 17.4682C17.8769 18.1682 17.6342 18.8632 17.2069 19.4382C16.5158 20.3982 15.3182 21.0232 14.089 21.0432C13.3346 21.0832 12.5802 20.8882 11.9366 20.5282C10.8709 19.9332 10.1218 18.8432 10.011 17.6732C10.0005 17.4232 9.9952 17.1732 10.0058 16.9282C10.1007 15.9783 10.5966 15.0683 11.3668 14.4483C12.2426 13.7283 13.4665 13.3833 14.6113 13.5883C14.6219 14.3283 14.5902 15.0683 14.5902 15.8083C14.0679 15.6483 13.456 15.6933 12.997 15.9933C12.6646 16.1983 12.4114 16.5132 12.2795 16.8682C12.1687 17.1232 12.2004 17.4032 12.2057 17.6732C12.3323 18.4932 13.1658 19.1832 14.0521 19.1082C14.643 19.1032 15.2074 18.7782 15.5134 18.3032C15.6137 18.1382 15.7244 17.9682 15.7297 17.7732C15.7825 16.8782 15.7614 15.9883 15.7667 15.0933C15.7719 13.0783 15.7614 11.0683 15.7772 9.05834Z" fill="#C35AB8"/>
</svg>
