<svg width="179" height="2552" viewBox="0 0 179 2552" fill="none" xmlns="http://www.w3.org/2000/svg">
<g clip-path="url(#clip0_779_1086)">
<path d="M28.1471 1793.17C21.9033 1793.17 17.5627 1791.33 14.1236 1787.19C11.586 1784.15 8.64774 1781.35 5.80965 1778.64C5.20865 1778.08 4.60764 1777.51 4.04002 1776.94C1.43566 1774.4 0.233643 1771.47 0.233643 1767.66C0.300421 1746.83 0.300421 1725.73 0.233643 1704.93C0.233643 1700.95 1.56921 1697.82 4.44069 1695.05C7.74623 1691.87 11.5526 1688.13 15.1253 1684.36C18.364 1680.89 22.3374 1679.29 27.6463 1679.35C42.4043 1679.42 57.4295 1679.42 71.9538 1679.42C83.4731 1679.42 94.9925 1679.42 106.512 1679.42C120.836 1679.45 135.661 1679.49 150.252 1679.29C156.629 1679.19 161.203 1681.16 165.143 1685.66C167.547 1688.44 170.252 1691.01 172.856 1693.51L174.259 1694.85C177.431 1697.88 178.866 1701.46 178.833 1706.06C178.766 1724.02 178.699 1745.29 178.833 1766.66C178.866 1771.2 177.364 1774.87 174.259 1777.88C170.653 1781.38 167.08 1785.02 163.674 1788.69C160.836 1791.73 157.43 1793.2 153.157 1793.1C147.38 1793.03 141.537 1793.03 135.861 1793.03H90.0508V1793.1H89.6836C84.1075 1793.1 78.5315 1793.1 72.9889 1793.1C58.3644 1793.07 43.2391 1793.07 28.3808 1793.2C28.314 1793.17 28.2139 1793.17 28.1471 1793.17ZM27.4459 1680.09C22.4709 1680.09 18.7313 1681.62 15.6595 1684.86C12.0535 1688.67 8.24707 1692.37 4.94153 1695.58C2.237 1698.22 0.968207 1701.19 0.968207 1704.93C1.03499 1725.73 1.03499 1746.83 0.968207 1767.66C0.968207 1771.27 2.10344 1774.04 4.57425 1776.41C5.17526 1776.98 5.74288 1777.54 6.34388 1778.11C9.18197 1780.85 12.1536 1783.65 14.6912 1786.72C18.0301 1790.7 22.2372 1792.5 28.3808 1792.43C43.2391 1792.3 58.3644 1792.33 72.9889 1792.33C78.4314 1792.33 83.8738 1792.33 89.3163 1792.33V1792.27H135.828C141.504 1792.27 147.347 1792.27 153.123 1792.33C157.163 1792.43 160.435 1791.03 163.107 1788.16C166.546 1784.49 170.118 1780.81 173.724 1777.34C176.729 1774.4 178.098 1771.03 178.065 1766.66C177.931 1745.29 177.998 1724.02 178.065 1706.06C178.098 1701.66 176.729 1698.25 173.724 1695.35L172.322 1694.01C169.718 1691.51 167.013 1688.9 164.576 1686.13C160.803 1681.82 156.395 1679.92 150.252 1680.02C135.661 1680.22 120.836 1680.19 106.478 1680.16C94.9591 1680.12 83.4398 1680.12 71.9205 1680.16C57.3961 1680.16 42.3709 1680.19 27.6129 1680.09C27.5461 1680.09 27.4793 1680.09 27.4459 1680.09ZM129.918 1755.47C129.684 1755.47 129.45 1755.47 129.216 1755.47H128.515H89.6168C77.0958 1755.47 64.1741 1755.47 51.4862 1755.44H50.7516C49.3159 1755.44 47.8134 1755.44 46.3776 1755.27C41.4026 1754.71 38.6647 1751.97 38.1639 1747.13C37.9302 1744.86 37.9635 1742.52 37.9635 1740.28C37.9635 1739.68 37.9635 1739.05 37.9635 1738.45C37.9635 1737.58 37.9635 1736.74 37.9635 1735.88C37.9635 1732.94 37.9302 1729.87 38.0971 1726.9C38.3976 1720.62 41.5362 1717.51 47.9136 1717.05C48.9486 1716.98 50.0171 1716.98 51.0188 1716.98C51.4194 1716.98 51.8201 1716.98 52.2542 1716.98H128.549C129.116 1716.98 129.651 1716.98 130.218 1716.98C131.587 1716.98 132.989 1716.98 134.358 1717.18C138.699 1717.75 141.036 1720.12 141.17 1724.02C141.437 1733.04 141.404 1741.08 141.136 1748.53C141.003 1752.47 138.632 1754.81 134.292 1755.27C132.856 1755.44 131.387 1755.47 129.918 1755.47ZM51.4528 1754.67C64.1407 1754.71 77.0958 1754.71 89.5834 1754.71H129.216C130.853 1754.71 132.589 1754.71 134.225 1754.51C138.198 1754.04 140.268 1752.04 140.402 1748.46C140.669 1741.02 140.702 1733.04 140.435 1724.02C140.335 1720.49 138.265 1718.45 134.292 1717.92C132.956 1717.71 131.62 1717.75 130.252 1717.75C129.684 1717.75 129.15 1717.75 128.582 1717.75H52.2208C51.8201 1717.75 51.4194 1717.75 50.9854 1717.75C49.9837 1717.75 48.9486 1717.71 47.9469 1717.82C41.9035 1718.25 39.0988 1721.09 38.7983 1726.96C38.6647 1729.93 38.6647 1732.97 38.6647 1735.91C38.6647 1736.78 38.6647 1737.61 38.6647 1738.48C38.6647 1739.12 38.6647 1739.72 38.6647 1740.35C38.6313 1742.55 38.6313 1744.86 38.8651 1747.09C39.3325 1751.63 41.8033 1754.07 46.4444 1754.57C47.8468 1754.74 49.3159 1754.74 50.7183 1754.71L51.4528 1754.67Z" fill="#4B3045"/>
<path d="M3.90646 1230.88C3.1719 1230.88 2.50411 1230.68 1.96989 1230.31C1.13515 1229.74 0.634314 1228.71 0.467368 1227.41C0.300421 1226.2 0.267032 1224.97 0.267032 1223.8V1223.07C0.233643 1216.12 0.233643 1209.08 0.267032 1202.13C0.300421 1194.29 0.767872 1193.69 8.54758 1191.32C10.0501 1190.85 11.5526 1190.41 13.0551 1189.98C14.9917 1189.41 16.9617 1188.85 18.8983 1188.24C19.9667 1187.94 21.0018 1187.51 22.137 1187.08C22.6045 1186.88 23.0719 1186.71 23.5728 1186.51C23.6395 1186.04 23.7397 1185.61 23.8065 1185.17C24.0068 1184 24.2072 1182.87 24.2405 1181.77C24.3073 1171.85 24.3073 1161.74 24.2739 1151.95V1142.11C24.2739 1141.44 24.2405 1140.7 24.2072 1139.97C24.1738 1137.63 23.1053 1136.26 20.8014 1135.66C18.1303 1134.93 15.4592 1134.13 12.8548 1133.36C11.8197 1133.06 10.7847 1132.72 9.7162 1132.42C8.14691 1131.96 6.51083 1131.45 4.87475 1130.92C1.83633 1129.85 0.267032 1127.75 0.267032 1124.64C0.300421 1121.31 0.267032 1117.93 0.267032 1114.66C0.267032 1112.46 0.233643 1110.25 0.233643 1108.05C0.233643 1104.48 0.233643 1100.81 0.33381 1097.23C0.3672 1096.4 0.600925 1095.56 0.83465 1094.86C0.934818 1094.53 1.03499 1094.23 1.10176 1093.9L1.13515 1093.73L1.26871 1093.66C3.90646 1092.09 6.21033 1092.83 8.41402 1093.49C8.74791 1093.6 9.11519 1093.7 9.44909 1093.8L18.9984 1096.6C26.6446 1098.84 34.3241 1101.07 42.0036 1103.34C76.3612 1113.46 110.685 1123.61 145.01 1133.76L169.851 1141.1C178.633 1143.67 178.699 1143.77 178.633 1153.59V1154.39C178.633 1157.06 178.633 1159.77 178.633 1162.44C178.633 1165.94 178.633 1169.58 178.599 1173.15C178.532 1179.16 177.931 1179.96 172.255 1181.67C164.542 1183.97 156.696 1186.24 149.083 1188.44C142.839 1190.25 136.395 1192.15 130.051 1194.02C110.585 1199.8 91.1193 1205.57 71.6533 1211.35C52.1874 1217.12 32.688 1222.83 13.2221 1228.61C10.1169 1229.54 7.51251 1230.24 4.84136 1230.78C4.54086 1230.85 4.20697 1230.88 3.90646 1230.88ZM1.73616 1094.2C1.66938 1094.46 1.56921 1094.76 1.50244 1095.03C1.3021 1095.73 1.06837 1096.47 1.03499 1097.2C0.934818 1100.77 0.934818 1104.45 0.934818 1108.02C0.934818 1110.22 0.934818 1112.42 0.968207 1114.63C0.968207 1117.9 1.0016 1121.27 0.968207 1124.61C0.968207 1127.38 2.30378 1129.22 5.07509 1130.19C6.67778 1130.72 8.31385 1131.19 9.88315 1131.69C10.9182 1131.99 11.9867 1132.29 13.0217 1132.62C15.6261 1133.39 18.2972 1134.19 20.9684 1134.93C23.5394 1135.59 24.8749 1137.3 24.9083 1139.93C24.9417 1140.67 24.9751 1141.4 24.9751 1142.11V1151.95C24.9751 1161.74 24.9751 1171.85 24.9417 1181.77C24.9083 1182.94 24.708 1184.1 24.4743 1185.31C24.3741 1185.81 24.2739 1186.34 24.2072 1186.84L24.1738 1187.04L23.9734 1187.11C23.4058 1187.31 22.8716 1187.54 22.3707 1187.74C21.2355 1188.21 20.167 1188.65 19.0652 1188.95C17.1286 1189.55 15.1253 1190.15 13.1887 1190.68C11.6862 1191.12 10.1837 1191.55 8.68113 1192.02C1.20193 1194.29 0.968207 1194.59 0.934818 1202.13C0.901428 1209.08 0.901428 1216.12 0.934818 1223.07V1223.77C0.968207 1224.94 1.0016 1226.14 1.13515 1227.31C1.26871 1228.41 1.70277 1229.24 2.33717 1229.71C2.93818 1230.14 3.70613 1230.28 4.64103 1230.08C7.27878 1229.54 9.88315 1228.84 12.955 1227.91C32.4209 1222.13 51.8869 1216.36 71.3528 1210.58C90.8188 1204.8 110.285 1199.03 129.751 1193.25C136.095 1191.38 142.539 1189.51 148.783 1187.68C156.362 1185.47 164.242 1183.2 171.955 1180.9C177.264 1179.33 177.664 1178.73 177.765 1173.09C177.798 1169.52 177.798 1165.91 177.798 1162.4C177.798 1159.73 177.798 1157.03 177.798 1154.36V1153.56C177.865 1144.21 177.865 1144.21 169.551 1141.8L168.215 1141.4L144.709 1134.46C110.385 1124.31 76.0273 1114.16 41.7031 1104.04C34.0236 1101.77 26.3775 1099.54 18.6979 1097.3L9.14858 1094.5C8.81469 1094.4 8.44741 1094.3 8.11352 1094.16C6.04338 1093.53 4.00663 1092.89 1.73616 1094.2ZM61.4696 1176.36C61.2359 1176.36 61.0022 1176.33 60.8018 1176.26C60.6683 1176.23 60.5013 1176.19 60.3678 1176.19L60.1006 1176.16L60.0339 1175.89C58.6983 1170.38 58.7317 1152.76 60.0673 1147.35L60.134 1147.01L60.4679 1147.08C68.8153 1148.41 101.236 1158.5 106.144 1161.27L106.612 1161.54L106.178 1161.87C105.877 1162.1 105.577 1162.37 105.31 1162.6C104.675 1163.17 104.074 1163.71 103.34 1163.94C92.5884 1167.21 81.6367 1170.45 71.0523 1173.55L61.9037 1176.26C61.7367 1176.33 61.6032 1176.36 61.4696 1176.36ZM60.6683 1175.49C60.7684 1175.49 60.8352 1175.52 60.9354 1175.56C61.2359 1175.62 61.4696 1175.66 61.6699 1175.59L70.8186 1172.89C81.403 1169.78 92.3881 1166.54 103.106 1163.27C103.707 1163.1 104.208 1162.64 104.809 1162.1C104.976 1161.97 105.109 1161.84 105.276 1161.7C99.2329 1158.76 68.9822 1149.38 60.6683 1147.91C59.4662 1153.49 59.4662 1169.88 60.6683 1175.49Z" fill="#4B3045"/>
<path d="M4.6076 1648.37C3.27203 1648.37 2.33713 1648.1 1.63596 1647.57C0.0666584 1646.34 0.100048 1643.9 0.166826 1640.49C0.166826 1639.96 0.166826 1639.39 0.200216 1638.79C0.200216 1635.92 0.200216 1633.01 0.200216 1630.14C0.200216 1626.37 0.200216 1622.43 0.233605 1618.59C0.233605 1617.12 0.300383 1615.69 0.367162 1614.02C0.433941 1612.98 0.46733 1611.81 0.500719 1610.55V1610.28L0.767834 1610.21C13.99 1606.17 27.2455 1602.57 40.067 1599.13C45.209 1597.76 50.3176 1596.36 55.4261 1594.95C67.0456 1591.75 78.9322 1588.51 90.4181 1585.41C96.4616 1583.77 102.505 1582.13 108.582 1580.46C108.548 1580.43 108.515 1580.4 108.482 1580.4C108.048 1580.06 107.647 1579.76 107.246 1579.63C96.6953 1577.23 86.1443 1574.86 75.5932 1572.49C65.0422 1570.11 54.4912 1567.74 43.9402 1565.34C32.3207 1562.7 20.7012 1559.97 8.81465 1557.16C0.433941 1555.16 0.200216 1554.86 0.200216 1546.24C0.166826 1541.6 0.200216 1536.86 0.200216 1532.29C0.200216 1529.95 0.200216 1527.65 0.200216 1525.31C0.200216 1523.64 0.200216 1521.94 0.400551 1520.2C0.567498 1518.73 1.06834 1517.67 1.93646 1517.03C2.77119 1516.4 3.87304 1516.16 5.20861 1516.36C7.04502 1516.66 8.78127 1517.1 10.6177 1517.6L10.8848 1517.67C37.1956 1524.54 63.4729 1531.39 89.7837 1538.26C116.094 1545.14 142.372 1551.99 168.683 1558.86C169.217 1559 169.751 1559.13 170.285 1559.26C171.153 1559.46 172.022 1559.66 172.923 1559.97C177.297 1561.43 178.532 1563.1 178.599 1567.71C178.733 1579.23 178.733 1588.64 178.599 1597.32C178.532 1602.37 177.364 1603.77 172.188 1605.17C161.07 1608.17 149.717 1611.15 138.766 1614.02L131.019 1616.02C119.901 1618.93 108.749 1621.83 97.6302 1624.7C69.2159 1632.08 39.8333 1639.72 10.985 1647.4C8.18026 1648.04 6.14351 1648.37 4.6076 1648.37ZM1.23528 1610.81C1.20189 1611.98 1.13512 1613.05 1.10173 1614.02C1.03495 1615.69 0.968169 1617.12 0.968169 1618.56C0.93478 1622.4 0.93478 1626.34 0.93478 1630.11C0.93478 1633.01 0.93478 1635.89 0.93478 1638.79C0.93478 1639.39 0.93478 1639.96 0.901391 1640.53C0.834612 1643.7 0.801223 1646 2.07002 1647C3.30542 1647.97 5.94317 1647.84 10.6511 1646.6C39.4994 1638.92 68.882 1631.28 97.2963 1623.9C108.448 1621 119.567 1618.12 130.686 1615.22L138.432 1613.22C149.384 1610.35 160.736 1607.41 171.855 1604.4C176.729 1603.1 177.631 1601.97 177.731 1597.26C177.865 1588.58 177.865 1579.16 177.731 1567.68C177.664 1563.37 176.629 1561.97 172.556 1560.6C171.721 1560.33 170.853 1560.13 169.985 1559.93C169.451 1559.8 168.916 1559.66 168.382 1559.53C142.105 1552.65 115.794 1545.81 89.4832 1538.93C63.1724 1532.05 36.8951 1525.21 10.5843 1518.33L10.3172 1518.27C8.51415 1517.8 6.8113 1517.36 4.97488 1517.06C3.83965 1516.9 2.93814 1517.06 2.27035 1517.56C1.56918 1518.1 1.16851 1519 1.03495 1520.24C0.834612 1521.91 0.834612 1523.61 0.834612 1525.24C0.834612 1527.58 0.834612 1529.88 0.834612 1532.22C0.834612 1536.8 0.834612 1541.54 0.834612 1546.18C0.834612 1554.46 0.834612 1554.46 8.88143 1556.36C20.768 1559.16 32.3875 1561.94 43.9736 1564.54C54.5246 1566.94 65.0756 1569.31 75.6266 1571.68C86.1777 1574.05 96.7287 1576.42 107.28 1578.83C107.847 1578.96 108.315 1579.33 108.782 1579.73C109.016 1579.9 109.25 1580.1 109.483 1580.23L110.185 1580.7L109.383 1580.9C103.039 1582.63 96.7287 1584.34 90.4515 1586.04C78.9656 1589.14 67.079 1592.38 55.4595 1595.59C50.3509 1596.99 45.2424 1598.39 40.1004 1599.76C27.5461 1603.23 14.3907 1606.81 1.23528 1610.81Z" fill="#4B3045"/>
<path d="M175.06 1362.69C174.559 1362.69 174.058 1362.59 173.524 1362.42C171.921 1361.85 170.352 1361.08 168.883 1360.35C163.14 1357.41 157.397 1354.44 151.621 1351.5C131.387 1341.15 110.485 1330.44 90.0174 1319.65C84.8421 1316.91 79.7335 1315.65 73.9238 1315.65C73.857 1315.65 73.7568 1315.65 73.6567 1315.65C59.1657 1315.78 44.441 1315.78 30.2172 1315.78C24.0068 1315.78 17.8298 1315.78 11.6194 1315.78C11.1519 1315.78 10.6511 1315.78 10.1836 1315.78C8.51416 1315.78 6.81131 1315.81 5.10845 1315.65C1.76952 1315.35 0.500731 1314.08 0.267006 1310.8C0.166838 1309.44 0.200228 1308.07 0.200228 1306.73V1305.73C0.200228 1303.59 0.200228 1301.49 0.200228 1299.35C0.200228 1294.11 0.166838 1288.7 0.267006 1283.33C0.333785 1278.25 1.5358 1277.05 6.61097 1276.95C11.6528 1276.85 16.7947 1276.85 21.7697 1276.88C23.4726 1276.88 25.142 1276.88 26.8449 1276.88C30.7848 1276.88 34.6914 1276.88 38.6313 1276.88C50.3843 1276.88 62.5046 1276.92 74.458 1277.05C79.8003 1277.12 84.6751 1275.95 89.4832 1273.41C107.914 1263.76 126.746 1254.08 144.943 1244.7C152.088 1241.03 159.233 1237.32 166.379 1233.65C166.813 1233.45 167.213 1233.22 167.648 1233.02C169.35 1232.15 171.087 1231.25 172.89 1230.51C174.526 1229.88 175.861 1229.88 176.83 1230.44C177.865 1231.08 178.499 1232.38 178.699 1234.35C178.833 1235.32 178.833 1236.29 178.833 1237.26C178.833 1239.63 178.833 1242 178.833 1244.33C178.8 1250.51 178.8 1256.92 178.933 1263.2C179.033 1267.9 177.13 1270.98 172.689 1273.15C162.806 1277.99 152.823 1283.03 143.14 1287.9C139.868 1289.54 136.595 1291.21 133.357 1292.84C131.654 1293.68 130.018 1294.58 127.981 1295.71L127.013 1296.25C127.58 1296.58 128.081 1296.88 128.582 1297.15C130.085 1298.02 131.353 1298.79 132.656 1299.42C142.272 1304.23 152.021 1309.07 161.504 1313.74L168.883 1317.38C169.451 1317.65 169.985 1317.92 170.552 1318.22C171.487 1318.68 172.456 1319.15 173.424 1319.65C177.163 1321.56 178.966 1324.53 178.933 1328.67C178.9 1334.31 178.866 1340.02 178.866 1345.56C178.866 1349.3 178.866 1353.07 178.833 1356.81C178.833 1357.65 178.766 1358.38 178.666 1359.05C178.432 1360.48 177.798 1361.59 176.863 1362.15C176.262 1362.52 175.694 1362.69 175.06 1362.69ZM73.9572 1314.91C79.8671 1314.91 85.1092 1316.21 90.3847 1318.98C110.819 1329.73 131.754 1340.45 151.955 1350.83C157.698 1353.77 163.44 1356.74 169.217 1359.68C170.686 1360.42 172.222 1361.18 173.791 1361.72C174.793 1362.05 175.728 1362.02 176.429 1361.59C177.197 1361.12 177.698 1360.22 177.898 1358.98L178.265 1359.05L177.898 1358.98C177.998 1358.38 178.032 1357.65 178.032 1356.88C178.032 1353.11 178.032 1349.37 178.065 1345.63C178.065 1340.08 178.065 1334.38 178.132 1328.73C178.165 1324.89 176.496 1322.16 173.023 1320.39C172.088 1319.89 171.12 1319.42 170.185 1318.95C169.617 1318.68 169.05 1318.42 168.516 1318.12L161.137 1314.48C151.687 1309.8 141.904 1304.96 132.288 1300.15C130.986 1299.49 129.684 1298.75 128.181 1297.85C127.514 1297.45 126.812 1297.05 126.044 1296.62L125.477 1296.28L127.58 1295.11C129.65 1293.98 131.253 1293.08 132.989 1292.21C136.262 1290.57 139.534 1288.9 142.772 1287.27C152.422 1282.39 162.439 1277.35 172.322 1272.51C176.462 1270.47 178.232 1267.64 178.132 1263.23C177.998 1256.95 178.032 1250.54 178.032 1244.33C178.032 1241.96 178.032 1239.59 178.032 1237.26C178.032 1236.32 178.032 1235.32 177.931 1234.42C177.731 1232.68 177.23 1231.55 176.396 1231.05C175.628 1230.58 174.526 1230.61 173.123 1231.15C171.387 1231.85 169.617 1232.75 167.948 1233.62C167.514 1233.85 167.113 1234.05 166.679 1234.25C159.534 1237.96 152.389 1241.63 145.243 1245.3C127.046 1254.68 108.248 1264.4 89.7837 1274.01C84.8755 1276.58 79.8337 1277.79 74.4246 1277.72C62.5046 1277.59 50.3509 1277.55 38.5979 1277.55C34.658 1277.55 30.7514 1277.55 26.8115 1277.55C25.1086 1277.55 23.4392 1277.55 21.7363 1277.55C16.7613 1277.55 11.6528 1277.52 6.61097 1277.62C1.90308 1277.72 1.06835 1278.59 0.968181 1283.29C0.901403 1288.64 0.901403 1294.05 0.901403 1299.29C0.901403 1301.42 0.901403 1303.56 0.901403 1305.66V1306.67C0.901403 1307.97 0.901403 1309.34 0.968181 1310.67C1.16852 1313.58 2.13681 1314.54 5.10845 1314.81C6.74453 1314.94 8.44738 1314.94 10.1168 1314.94C10.5843 1314.94 11.0851 1314.94 11.5526 1314.94C17.763 1314.94 23.9734 1314.94 30.1504 1314.94C44.3743 1314.94 59.0989 1314.94 73.5899 1314.81C73.7902 1314.91 73.857 1314.91 73.9572 1314.91Z" fill="#4B3045"/>
<path d="M170.052 1499.4C169.518 1499.4 168.983 1499.4 168.382 1499.4C164.643 1499.34 160.836 1499.34 157.13 1499.37C154.626 1499.37 152.122 1499.4 149.618 1499.37C147.948 1499.37 146.212 1499.37 144.542 1499.14C142.172 1498.8 140.803 1497.43 140.536 1495.06C140.335 1493.39 140.335 1491.66 140.335 1489.95C140.335 1487.05 140.335 1484.18 140.335 1481.27C140.335 1477.5 140.335 1473.6 140.302 1469.76C140.302 1469.36 140.302 1468.95 140.302 1468.52C140.302 1466.82 140.335 1465.22 139.133 1463.78C137.163 1462.98 135.093 1463.08 132.889 1463.15C132.222 1463.18 131.554 1463.21 130.886 1463.21C91.42 1463.18 51.3528 1463.18 12.5545 1463.18C12.087 1463.18 11.5862 1463.18 11.1187 1463.18C9.21556 1463.18 7.24559 1463.21 5.30901 1463.01C4.34072 1462.91 3.40582 1462.54 2.50431 1462.18C2.07025 1462.01 1.66958 1461.84 1.23552 1461.68L1.03518 1461.61L1.00179 1461.41C0.901623 1461.01 0.801455 1460.64 0.701287 1460.31C0.500952 1459.64 0.300616 1459.01 0.300616 1458.34V1458.14C0.233837 1448.99 0.167059 1439.51 0.233837 1430.19C0.267227 1426.22 1.30229 1425.12 5.27562 1424.92C6.84492 1424.85 8.41421 1424.85 9.95012 1424.85C10.5511 1424.85 11.1855 1424.85 11.7865 1424.85C50.7852 1424.85 91.1529 1424.85 130.819 1424.82C131.42 1424.82 132.021 1424.85 132.656 1424.85C134.826 1424.92 137.097 1425.02 139.501 1424.08C139.567 1423.68 139.668 1423.28 139.768 1422.88C140.001 1421.88 140.235 1420.81 140.269 1419.78C140.335 1415.27 140.335 1410.7 140.335 1406.26C140.335 1403.55 140.335 1400.85 140.335 1398.14C140.335 1396.31 140.369 1394.3 140.602 1392.33C140.836 1390.33 142.172 1389.1 144.309 1388.83C144.809 1388.76 145.31 1388.69 145.778 1388.69C148.816 1388.69 151.855 1388.69 154.926 1388.66C160.903 1388.63 167.114 1388.59 173.19 1388.69C177.397 1388.76 178.499 1389.86 178.8 1394.24C178.867 1395.31 178.867 1396.44 178.833 1397.51V1398.61V1421.25C178.833 1443.38 178.833 1466.25 178.867 1488.75C178.9 1493.63 178.833 1496.2 177.297 1497.7C175.995 1499.07 173.791 1499.4 170.052 1499.4ZM161.704 1498.6C163.942 1498.6 166.179 1498.6 168.382 1498.67C172.823 1498.74 175.494 1498.57 176.73 1497.3C178.032 1496 178.099 1493.53 178.065 1488.89C177.998 1466.38 177.998 1443.48 178.032 1421.38V1397.64C178.032 1396.57 178.032 1395.47 177.998 1394.4C177.731 1390.4 176.963 1389.63 173.124 1389.56C167.047 1389.5 160.836 1389.5 154.86 1389.53C151.821 1389.53 148.749 1389.56 145.711 1389.56C145.277 1389.56 144.809 1389.6 144.342 1389.66C142.539 1389.86 141.471 1390.86 141.304 1392.53C141.07 1394.47 141.036 1396.44 141.036 1398.24C141.036 1400.95 141.036 1403.65 141.036 1406.36C141.036 1410.8 141.036 1415.37 140.97 1419.88C140.936 1420.98 140.703 1422.08 140.435 1423.12C140.335 1423.58 140.202 1424.05 140.135 1424.48L140.102 1424.68L139.901 1424.75C137.297 1425.82 134.893 1425.72 132.589 1425.65C131.988 1425.62 131.387 1425.62 130.786 1425.62C91.1195 1425.65 50.7518 1425.65 11.7531 1425.65C11.1521 1425.65 10.5177 1425.65 9.91673 1425.65C8.41421 1425.65 6.84492 1425.62 5.30901 1425.72C1.73636 1425.92 1.00179 1426.65 0.968402 1430.26C0.901623 1439.58 0.968402 1449.06 1.03518 1458.2V1458.4C1.03518 1458.97 1.20213 1459.51 1.40246 1460.17C1.50263 1460.47 1.6028 1460.78 1.66958 1461.14C2.03686 1461.28 2.43753 1461.41 2.80481 1461.58C3.70632 1461.94 4.54106 1462.28 5.40918 1462.38C7.31237 1462.54 9.24895 1462.54 11.1521 1462.54C11.6196 1462.54 12.1204 1462.54 12.5879 1462.54C51.3528 1462.54 91.4534 1462.54 130.92 1462.58C131.587 1462.58 132.222 1462.54 132.889 1462.51C135.093 1462.41 137.364 1462.34 139.501 1463.21L139.567 1463.25L139.634 1463.31C141.07 1464.95 141.036 1466.82 141.036 1468.59C141.036 1468.99 141.036 1469.39 141.036 1469.79C141.07 1473.63 141.07 1477.57 141.07 1481.34C141.07 1484.25 141.07 1487.12 141.07 1490.02C141.07 1491.69 141.07 1493.39 141.27 1495.03C141.504 1497.07 142.639 1498.17 144.643 1498.43C146.279 1498.67 147.948 1498.67 149.618 1498.67C152.122 1498.67 154.626 1498.67 157.13 1498.67C158.666 1498.6 160.169 1498.6 161.704 1498.6Z" fill="#4B3045"/>
<path d="M15.7263 2552L15.1587 2551.73C14.6912 2551.5 14.2238 2551.33 13.8231 2551.2C12.955 2550.86 12.2872 2550.63 11.8865 2550.1C10.7513 2548.53 10.0835 2547.13 9.81641 2545.79L9.68286 2545.16C7.27883 2533.07 4.80802 2520.58 4.8748 2507.93C4.90819 2495.71 7.37899 2483.83 12.1871 2472.61C18.1637 2458.79 26.0436 2445.13 35.6263 2432.01C38.0304 2428.74 40.9686 2425.47 44.6414 2422.03C46.9119 2419.89 47.4795 2417.82 46.7116 2414.65C44.2074 2404.6 41.77 2394.32 39.5329 2384.03C38.2975 2378.36 37.1622 2372.35 36.0938 2365.61C34.4911 2355.49 31.8533 2346.27 27.9802 2337.43C26.678 2334.46 25.7765 2331.32 24.8082 2327.88C23.4392 2322.8 25.0753 2318.7 29.6163 2315.96C34.8584 2312.79 40.3008 2309.88 45.4428 2307.18C47.4461 2306.11 49.4829 2305.18 51.6866 2304.21C52.6215 2303.81 53.5564 2303.37 54.5247 2302.91C54.2576 2302.64 53.9905 2302.34 53.7567 2302.07C53.1891 2301.44 52.6883 2300.87 52.0873 2300.44C46.8785 2296.76 42.204 2292.12 38.2641 2286.71C32.5879 2279 31.9535 2270.82 36.3609 2262.41C37.6965 2259.87 39.3326 2257.47 41.0688 2254.96C41.8034 2253.9 42.5713 2252.76 43.3393 2251.63C42.6047 2249.86 41.8034 2247.92 40.8351 2245.55L40.7015 2245.25L41.002 2245.08C41.4361 2244.85 41.8034 2244.61 42.1706 2244.41C43.0054 2243.91 43.7733 2243.45 44.6414 2243.25L45.4762 2243.08C48.4478 2242.44 51.553 2241.81 54.6248 2241.71C58.9321 2241.54 61.5364 2239.54 63.1057 2235.17C66.2443 2226.55 68.2143 2218.04 69.0156 2209.89C69.9171 2200.68 70.5182 2191.23 71.0858 2182.15L71.4197 2177.17C71.5532 2175.44 71.4864 2173.74 71.3863 2171.9C71.3529 2171.06 71.3195 2170.2 71.2861 2169.33C70.8186 2169.2 70.418 2169.06 70.0173 2168.96C69.1158 2168.66 68.2811 2168.43 67.5465 2168.43C60.1007 2168.53 52.0873 2168.69 44.1406 2169.03C42.204 2169.09 40.3676 2169.16 38.7649 2168.06C34.9586 2165.46 32.2206 2162.55 30.451 2159.25C29.5161 2157.51 29.9168 2155.77 31.5862 2154.64C41.2357 2147.93 50.952 2144.82 61.2693 2145.16C63.4396 2145.22 65.5765 2146.26 67.0123 2147.13C71.0524 2149.53 74.3913 2152.57 76.9289 2156.21C78.3312 2158.24 80.1677 2159.08 82.939 2158.88C91.4198 2158.31 99.9341 2157.74 108.448 2157.18C116.428 2156.64 124.442 2156.11 132.422 2155.57C132.722 2155.54 133.056 2155.37 133.39 2155.24C133.49 2155.21 133.557 2155.17 133.657 2155.11C133.524 2154.17 132.889 2153.97 132.121 2153.74C131.921 2153.67 131.721 2153.6 131.52 2153.54C123.307 2150.3 114.492 2148.73 106.011 2147.23L100.635 2146.26C92.5551 2144.82 84.1744 2143.35 75.994 2141.55C66.044 2139.41 57.7968 2134.87 51.5196 2128.06C50.1507 2126.56 48.6148 2124.79 47.3126 2122.75C44.3743 2118.21 44.6081 2115.14 48.1807 2111.44C50.4512 2109.1 53.1223 2107.03 55.6933 2105.03C56.2609 2104.56 56.8619 2104.13 57.4296 2103.69C58.5314 2102.82 59.8002 2102.09 61.1358 2101.32C61.6032 2101.05 62.104 2100.75 62.6049 2100.49C62.3712 2100.15 62.1374 2099.85 61.9037 2099.55C61.4029 2098.85 60.902 2098.22 60.4012 2097.62C59.7668 2096.85 59.1324 2096.11 58.498 2095.34C57.3962 2094.08 56.2609 2092.77 55.2592 2091.41C52.5547 2087.7 49.917 2083.16 50.8519 2077.45C51.2859 2074.81 49.8168 2073.08 48.2809 2071.21C42.2374 2064 38.3309 2055.68 36.628 2046.43C34.7916 2036.28 34.9919 2027.3 37.2624 2019.02C39.6998 2010.11 44.5079 2002.26 51.553 1995.75C56.094 1991.51 61.2359 1988.71 66.8119 1987.34C69.65 1986.64 72.1208 1985.4 74.3913 1983.6C76.0274 1982.3 77.6968 1981 79.3329 1979.76C81.3697 1978.23 83.4732 1976.62 85.4432 1974.95C87.2128 1973.49 88.7487 1971.65 90.1844 1969.85L90.4182 1969.58C90.7854 1969.31 90.8856 1968.78 91.0192 1968.04C91.0526 1967.88 91.086 1967.68 91.1527 1967.48C90.6185 1967.44 90.1511 1967.41 89.6502 1967.34C88.5818 1967.24 87.6469 1967.14 86.712 1967.21C85.6101 1967.28 84.5416 1967.34 83.4398 1967.41C79.4999 1967.64 75.393 1967.91 71.3863 1968.41C62.5047 1969.58 55.4262 1966.34 49.6832 1958.53C48.3477 1956.73 47.5129 1955.26 47.7467 1953.85C47.947 1952.72 48.8485 1951.68 50.8185 1950.35C52.8218 1948.98 54.9921 1947.78 57.0957 1946.61C57.897 1946.18 58.6983 1945.71 59.4997 1945.27C60.2676 1944.84 61.0356 1944.47 61.9705 1944.04C62.3044 1943.87 62.6717 1943.71 63.0389 1943.54C62.7718 1943.14 62.5047 1942.74 62.271 1942.34C61.67 1941.44 61.1691 1940.63 60.5681 1939.9C52.9888 1930.58 48.6148 1919.6 47.5463 1907.21C46.4111 1894.06 50.952 1883.44 60.9688 1875.66C64.3077 1873.06 67.5799 1871.06 70.7519 1869.69C89.3831 1861.58 108.181 1859.97 126.612 1864.88C139.2 1868.22 148.883 1875.9 155.427 1887.75C163.14 1901.67 154.893 1914.86 146.579 1919.8C143.34 1921.7 139.901 1922.84 136.362 1923.17C131.387 1923.61 126.812 1924.11 122.405 1924.68C120.135 1924.98 118.265 1924.47 116.562 1923.07C114.091 1921 111.754 1918.9 110.452 1915.66L110.385 1915.46L110.519 1915.29C112.155 1913.39 114.225 1913.16 116.228 1913.06C117.898 1912.99 119.6 1912.99 121.27 1912.96C123.34 1912.92 125.477 1912.89 127.58 1912.82C135.26 1912.49 140.135 1908.75 142.906 1905.65C146.913 1901.17 149.117 1894.99 148.716 1889.55C148.215 1882.74 145.344 1878.34 139.934 1876.13L138.966 1875.73C135.193 1874.23 131.32 1872.66 127.38 1871.89C110.786 1868.62 94.8589 1869.59 80.0341 1874.83C74.9255 1876.63 70.6851 1878.84 67.1124 1881.54C58.4646 1888.02 54.0572 1896.6 53.9237 1907.01C53.7901 1916.96 56.3277 1926.58 61.4697 1935.63C62.3712 1937.2 63.5064 1938.63 64.7084 1940.17C65.1759 1940.77 65.6767 1941.4 66.1775 1942.04C67.0123 1941.84 67.847 1941.64 68.615 1941.44C69.9505 1941.1 71.2193 1940.77 72.5215 1940.5C74.024 1940.17 75.5265 1939.8 77.0291 1939.47C80.9022 1938.56 84.9089 1937.6 88.9156 1937.13C96.9959 1936.19 103.841 1940.87 106.812 1949.35L106.946 1949.71L106.579 1949.85C99.2663 1952.35 91.3865 1954.72 82.939 1953.62C79.6 1953.19 76.3279 1953.42 73.1559 1954.29C72.5883 1954.42 72.0541 1954.72 71.2193 1955.12C70.8854 1955.29 70.5515 1955.46 70.1175 1955.66C70.3846 1955.72 70.6517 1955.76 70.852 1955.82C71.6534 1955.99 72.1208 1956.09 72.5549 1956.09L73.6901 1956.12C76.1609 1956.19 78.7319 1956.26 81.2695 1956.12C89.6502 1955.69 96.3949 1959.3 101.904 1967.08C105.043 1971.48 105.076 1976.29 101.971 1980.63C100.301 1983 98.0643 1985.04 95.9274 1987.01L95.4933 1987.41C94.1912 1988.64 92.6886 1989.74 91.2529 1990.81C90.8188 1991.15 90.4182 1991.45 89.9841 1991.78C90.6519 1993.58 91.9207 1994.79 93.1561 1995.92C93.6235 1996.36 94.1244 1996.82 94.5918 1997.32C103.74 2007.17 106.345 2019.02 102.305 2032.51C100.301 2039.29 95.9274 2044.66 89.3831 2048.47C84.7086 2051.14 80.1343 2050.97 75.7603 2047.97C69.6834 2043.8 64.9087 2038.15 61.503 2031.14C58.5314 2025.07 56.6282 2018.42 55.6933 2010.88C54.725 2010.58 54.2242 2011.11 53.523 2012.05C46.6114 2021.33 43.406 2032.48 44.0404 2045.23C44.4411 2053.31 46.578 2060.79 50.3844 2067.4C50.8519 2068.17 51.3861 2068.9 51.9203 2069.6C52.0873 2069.84 52.2542 2070.07 52.4212 2070.31C53.6899 2070.37 54.1574 2069.67 54.6916 2068.87C54.8252 2068.64 54.9921 2068.44 55.1257 2068.24C59.0656 2063.49 63.5732 2059.72 68.5148 2057.05C75.6935 2053.14 82.939 2052.98 90.0843 2056.48C102.138 2062.39 111.086 2071.97 116.662 2084.93C118.131 2088.37 118.265 2092.01 116.996 2095.68C115.594 2099.75 112.923 2101.65 108.615 2101.69C105.343 2101.72 102.472 2100.75 100.068 2099.79C96.1277 2098.25 92.1544 2096.75 88.2145 2095.24C84.2745 2093.74 80.3012 2092.24 76.3613 2090.7C74.0908 2089.84 71.8203 2088.87 69.65 2087.9C69.0156 2087.63 68.3478 2087.33 67.7134 2087.07L67.6133 2087.03C66.5448 2086.6 65.4764 2086.16 64.2743 2085.7C63.0723 2087.93 62.8052 2090.07 63.3728 2092.57C63.8737 2094.84 64.9087 2096.51 66.3445 2097.41C67.6467 2098.22 69.2827 2098.42 71.1525 2097.95C75.6267 2096.85 80.1343 2096.41 84.5416 2096.68C94.9925 2097.28 102.806 2101.29 108.415 2108.97C108.916 2109.6 109.283 2110.13 109.584 2110.64C111.019 2112.84 111.387 2114.68 110.719 2116.04C110.084 2117.41 108.415 2118.21 105.844 2118.48C102.639 2118.82 99.2329 2118.68 95.7605 2118.15C89.2162 2117.08 83.8405 2115.18 79.3329 2112.24C76.6618 2110.54 74.3245 2110.47 71.5532 2111.97C67.2794 2114.27 62.4713 2117.15 59.2326 2121.79C58.6316 2122.62 58.2309 2123.62 57.8636 2124.59C57.73 2124.92 57.5965 2125.23 57.4963 2125.53C58.9655 2127.46 61.0022 2127.96 62.9722 2128.46C63.2393 2128.53 63.5064 2128.6 63.7735 2128.66C72.9222 2131.07 81.9707 2133.3 90.3848 2135.37C94.3915 2136.34 98.465 2137.21 102.438 2138.08C104.308 2138.48 106.178 2138.88 108.048 2139.31C116.228 2141.08 124.542 2143.85 133.524 2147.73C137.931 2149.66 142.339 2151.5 146.479 2153.2C151.42 2155.24 155.36 2158.71 158.566 2163.75C158.833 2164.19 158.9 2164.72 158.933 2165.32C158.966 2165.59 158.966 2165.89 159.033 2166.19L159.067 2166.49L158.766 2166.59C158.432 2166.72 158.098 2166.86 157.798 2166.99C157.13 2167.29 156.429 2167.56 155.694 2167.66L154.659 2167.76C151.487 2168.06 148.215 2168.36 144.976 2168.39C134.091 2168.46 123.006 2168.49 112.288 2168.53C105.076 2168.53 97.8974 2168.56 90.6853 2168.59H83.4732C83.4064 2168.86 83.3063 2169.13 83.2395 2169.36C83.0391 2169.96 82.8722 2170.5 82.9056 2170.96C84.141 2192.97 80.1009 2214.13 76.428 2230.12C76.1609 2231.26 75.9606 2232.46 75.7603 2233.7C75.6601 2234.23 75.5933 2234.77 75.4932 2235.33C76.6618 2235.6 77.8972 2235.73 79.0658 2235.87C82.171 2236.2 85.3764 2236.57 87.8806 2239.14C88.2479 2239.54 88.6485 2239.91 89.0158 2240.31C91.1193 2242.44 93.2896 2244.65 94.9925 2247.69L95.1594 2247.99L94.8589 2248.19C94.4249 2248.45 94.0242 2248.72 93.6569 2248.99C92.8222 2249.56 92.0876 2250.09 91.2529 2250.32C88.5818 2251.16 85.8438 2251.89 83.2061 2252.63C81.3697 2253.13 79.5667 2253.63 77.7302 2254.16C76.8287 2254.4 75.994 2254.7 75.0591 2255C74.4915 2255.2 73.9239 2255.36 73.2895 2255.56C73.1225 2257.2 72.9222 2258.8 72.7552 2260.41L72.7218 2260.64L72.5215 2260.71C69.049 2262.08 65.7101 2261.87 62.872 2261.47C60.3344 2261.14 58.2643 2261.81 56.4279 2263.54C51.4863 2268.18 48.5146 2272.69 47.0121 2277.7C46.5112 2279.5 46.2107 2281.51 46.0104 2284.21C45.7433 2288.48 47.7133 2291.52 51.8535 2293.29C56.2943 2295.19 60.4346 2296.4 64.5749 2296.96C72.0874 2298 76.8287 2301.67 80.4348 2309.22L80.5015 2309.32L80.4682 2309.45C80.0675 2311.65 78.2645 2312.35 76.6284 2312.99L76.3947 2313.06C74.6918 2313.72 72.989 2314.36 71.2861 2314.99C68.2477 2316.13 65.1091 2317.33 62.0373 2318.63L61.1024 2319.03C56.1607 2321.14 51.0522 2323.31 46.2775 2325.88C38.0304 2330.28 36.5612 2333.99 39.3326 2343.04L39.4327 2343.3C39.7332 2344.24 40.0671 2345.24 40.4678 2346.14C45.0755 2356.32 47.2124 2366.97 49.0822 2379.86C50.1173 2387.14 51.3861 2394.52 52.5881 2401.66C53.1223 2404.73 53.6566 2407.84 54.1574 2410.94C54.2576 2411.48 54.3911 2411.98 54.5915 2412.61C54.6582 2412.88 54.7584 2413.18 54.8586 2413.51C55.326 2413.41 55.7601 2413.31 56.1608 2413.25C57.1624 2413.05 58.0973 2412.85 58.9321 2412.51C63.0056 2410.81 67.4463 2410.04 72.1876 2410.24C75.7603 2410.38 78.7653 2411.14 81.3697 2412.58C96.3949 2421.06 103.941 2432.74 104.442 2448.24C104.609 2453.24 103.707 2457.52 101.67 2461.36C97.5301 2469.27 90.3514 2472.01 82.0375 2468.87C78.5316 2467.53 75.226 2465.4 71.8537 2462.32C66.5114 2457.52 61.9371 2451.34 57.8302 2443.53C56.7952 2441.53 55.7935 2439.49 54.7584 2437.35C54.2242 2436.25 53.6566 2435.08 53.0889 2433.91C52.8552 2434.05 52.5881 2434.15 52.3544 2434.28C51.6866 2434.61 51.0856 2434.88 50.6515 2435.32C48.7483 2437.22 47.3794 2438.75 46.2441 2440.29C36.5279 2453.31 28.8483 2465.53 22.7715 2477.62C14.7246 2493.61 11.6194 2510.6 13.556 2528.1C14.1236 2533.3 14.6912 2538.41 15.1587 2543.42C15.2923 2544.96 15.3924 2546.49 15.4926 2548.23C15.5594 2549.23 15.6262 2550.3 15.6929 2551.47L15.7263 2552ZM41.6364 2245.58C42.6047 2247.89 43.3727 2249.76 44.1072 2251.53L44.174 2251.69L44.0738 2251.86C43.3059 2253.06 42.4711 2254.23 41.7032 2255.36C40.0003 2257.87 38.3643 2260.21 37.0621 2262.71C32.7882 2270.86 33.4226 2278.77 38.8985 2286.25C42.805 2291.59 47.3794 2296.16 52.5547 2299.8C53.2225 2300.27 53.7901 2300.9 54.3577 2301.54C54.6916 2301.9 55.0255 2302.31 55.4596 2302.71L55.8269 2303.07L55.3594 2303.31C54.1908 2303.84 53.0889 2304.34 52.0205 2304.84C49.8502 2305.81 47.8134 2306.75 45.8101 2307.81C40.7015 2310.52 35.2591 2313.42 30.0503 2316.56C25.8433 2319.1 24.274 2322.9 25.5762 2327.65C26.5445 2331.08 27.446 2334.16 28.7148 2337.09C32.5879 2346.01 35.2591 2355.26 36.8617 2365.44C37.9302 2372.18 39.0654 2378.19 40.3008 2383.83C42.5713 2394.12 44.9753 2404.4 47.4795 2414.45C48.3143 2417.89 47.6799 2420.22 45.2091 2422.56C41.5696 2425.97 38.6314 2429.17 36.2607 2432.41C26.7114 2445.5 18.8315 2459.12 12.9216 2472.87C8.14695 2483.99 5.67614 2495.78 5.64275 2507.9C5.60936 2520.48 8.08017 2532.94 10.4508 2544.99L10.5844 2545.62C10.8181 2546.86 11.4859 2548.16 12.5543 2549.63C12.8214 2550 13.3891 2550.2 14.1236 2550.5C14.3907 2550.6 14.6579 2550.7 14.925 2550.83C14.8582 2549.9 14.7914 2549.03 14.758 2548.19C14.6579 2546.46 14.5577 2544.92 14.4241 2543.39C13.9567 2538.38 13.3891 2533.3 12.8214 2528.1C10.8515 2510.47 13.9901 2493.34 22.1037 2477.22C28.1805 2465.1 35.8935 2452.84 45.6431 2439.76C46.8118 2438.19 48.2141 2436.62 50.1173 2434.68C50.6515 2434.18 51.3193 2433.85 52.0205 2433.51C52.3544 2433.35 52.6883 2433.18 53.0555 2432.98L53.3894 2432.78L53.5564 2433.11C54.1908 2434.41 54.7918 2435.68 55.3928 2436.88C56.4279 2439.02 57.3962 2441.06 58.4646 2443.06C62.5047 2450.81 67.0457 2456.92 72.3212 2461.66C75.6267 2464.66 78.8655 2466.77 82.2712 2468.07C90.1844 2471.07 96.9959 2468.47 100.969 2460.89C102.939 2457.15 103.807 2452.98 103.674 2448.14C103.173 2432.91 95.7605 2421.46 81.0024 2413.11C78.4982 2411.74 75.6267 2411.01 72.1542 2410.88C67.5131 2410.68 63.1725 2411.44 59.1992 2413.08C58.2977 2413.48 57.3294 2413.65 56.2943 2413.85C55.7601 2413.95 55.2259 2414.05 54.6582 2414.22L54.291 2414.32L54.1908 2413.95C54.0572 2413.48 53.9571 2413.08 53.8569 2412.71C53.6566 2412.08 53.523 2411.54 53.4228 2410.98C52.922 2407.87 52.3878 2404.8 51.8535 2401.73C50.6181 2394.58 49.3493 2387.21 48.3477 2379.93C46.5112 2367.14 44.3743 2356.52 39.8 2346.41C39.3659 2345.47 39.0654 2344.47 38.7649 2343.5L38.6648 2343.24C35.7599 2333.86 37.396 2329.82 45.9436 2325.21C50.7517 2322.64 55.8602 2320.43 60.8353 2318.33L61.7702 2317.93C64.842 2316.63 67.9806 2315.43 71.0524 2314.29C72.7552 2313.66 74.4581 2312.99 76.1609 2312.35L76.3947 2312.25C77.9306 2311.69 79.3663 2311.12 79.7336 2309.42C76.2611 2302.21 71.6868 2298.67 64.5081 2297.66C60.301 2297.06 56.094 2295.86 51.6198 2293.93C47.1456 2292.06 45.0421 2288.75 45.3426 2284.14C45.543 2281.41 45.8435 2279.34 46.3777 2277.47C47.8802 2272.29 50.952 2267.68 55.9938 2262.98C57.9972 2261.11 60.301 2260.37 63.0389 2260.71C65.7101 2261.07 68.8821 2261.27 72.1208 2260.07C72.2878 2258.47 72.4881 2256.87 72.6551 2255.2L72.6885 2254.96L72.9222 2254.9C73.6234 2254.7 74.2911 2254.46 74.9255 2254.26C75.8604 2253.96 76.7286 2253.7 77.6301 2253.43C79.4331 2252.89 81.2695 2252.39 83.1059 2251.89C85.7437 2251.16 88.4816 2250.39 91.1527 2249.59C91.8873 2249.39 92.5551 2248.89 93.3564 2248.35C93.6569 2248.15 93.9574 2247.92 94.2913 2247.72C92.6886 2244.91 90.6185 2242.81 88.6152 2240.81C88.2145 2240.41 87.8472 2240.04 87.4799 2239.64C85.176 2237.27 82.2378 2236.94 79.0992 2236.57C77.797 2236.43 76.4281 2236.27 75.0925 2235.97L74.7586 2235.9L74.8254 2235.57C74.9589 2234.87 75.0591 2234.23 75.1593 2233.6C75.3596 2232.33 75.5599 2231.13 75.827 2229.96C79.4665 2214.03 83.5066 2192.93 82.3046 2171C82.2712 2170.4 82.4715 2169.83 82.7052 2169.13C82.8054 2168.83 82.9056 2168.49 83.0057 2168.13L83.0725 2167.86H90.8856C98.0643 2167.83 105.276 2167.83 112.488 2167.79C123.206 2167.76 134.292 2167.73 145.177 2167.66C148.415 2167.63 151.654 2167.33 154.793 2167.02L155.828 2166.92C156.462 2166.86 157.063 2166.59 157.698 2166.32C157.931 2166.22 158.198 2166.12 158.432 2166.02C158.399 2165.82 158.399 2165.59 158.365 2165.42C158.332 2164.89 158.299 2164.49 158.098 2164.19C154.993 2159.25 151.153 2155.91 146.345 2153.94C142.238 2152.23 137.798 2150.4 133.39 2148.46C124.442 2144.62 116.161 2141.89 108.048 2140.08C106.178 2139.68 104.308 2139.25 102.438 2138.85C98.4984 2138.01 94.3915 2137.11 90.3848 2136.14C81.9707 2134.07 72.9222 2131.84 63.7735 2129.43C63.5064 2129.37 63.2393 2129.3 62.9722 2129.23C60.902 2128.73 58.5648 2128.13 56.9287 2125.86L56.7952 2125.69L56.8953 2125.49C57.0623 2125.13 57.1958 2124.76 57.3628 2124.39C57.7634 2123.39 58.1641 2122.35 58.8319 2121.42C62.1708 2116.65 67.079 2113.74 71.4197 2111.37C74.4247 2109.73 77.0625 2109.8 79.9673 2111.64C84.3747 2114.48 89.6836 2116.38 96.1277 2117.41C99.5334 2117.95 102.872 2118.08 106.011 2117.75C108.315 2117.51 109.751 2116.81 110.285 2115.71C110.819 2114.58 110.452 2113.01 109.183 2111C108.882 2110.54 108.515 2110 108.048 2109.37C102.572 2101.89 94.9591 2097.98 84.742 2097.38C80.4014 2097.11 75.9606 2097.55 71.5532 2098.65C69.4831 2099.15 67.6467 2098.92 66.1775 2098.02C64.5749 2097.01 63.4062 2095.18 62.872 2092.71C62.2376 2089.94 62.6049 2087.5 64.0072 2085.03L64.1742 2084.76L64.4747 2084.89C65.7769 2085.4 66.9455 2085.86 68.1141 2086.36L68.2143 2086.4C68.8821 2086.66 69.5165 2086.96 70.1509 2087.23C72.3212 2088.17 74.5916 2089.14 76.8287 2090.04C80.7687 2091.57 84.742 2093.07 88.6819 2094.58C92.6219 2096.08 96.5952 2097.58 100.535 2099.12C102.872 2100.05 105.71 2100.99 108.816 2100.95C112.789 2100.92 115.226 2099.15 116.529 2095.45C117.731 2091.94 117.597 2088.5 116.195 2085.23C110.719 2072.44 101.904 2062.99 89.9841 2057.15C83.0725 2053.75 76.0274 2053.95 69.1158 2057.72C64.241 2060.32 59.8002 2064.03 55.927 2068.7C55.7935 2068.87 55.6599 2069.07 55.5264 2069.27C54.9587 2070.14 54.2242 2071.24 52.3878 2071.04H52.2208L52.1206 2070.91C51.9203 2070.64 51.72 2070.37 51.5196 2070.07C50.9854 2069.37 50.4178 2068.6 49.9503 2067.8C46.0438 2061.06 43.8735 2053.51 43.5062 2045.3C42.8718 2032.35 46.1106 2021.03 53.1223 2011.65C53.7567 2010.78 54.6582 2009.58 56.3611 2010.28L56.5614 2010.34L56.5948 2010.54C57.4963 2018.09 59.3995 2024.73 62.3712 2030.78C65.7101 2037.65 70.4514 2043.23 76.3947 2047.34C80.5683 2050.21 84.742 2050.34 89.2161 2047.8C95.5935 2044.1 99.8339 2038.86 101.804 2032.25C105.744 2019.02 103.206 2007.41 94.2579 1997.76C93.8239 1997.29 93.3564 1996.86 92.889 1996.39C91.52 1995.12 90.1177 1993.82 89.4499 1991.68L89.3831 1991.41L89.5834 1991.25C90.0843 1990.88 90.5851 1990.51 91.086 1990.11C92.4883 1989.08 93.9574 1987.98 95.2596 1986.77L95.7271 1986.37C97.864 1984.44 100.034 1982.43 101.67 1980.1C104.609 1975.96 104.575 1971.58 101.604 1967.38C96.2279 1959.83 89.6836 1956.36 81.6034 1956.76C79.0324 1956.89 76.4614 1956.83 73.9572 1956.76L72.8554 1956.73C72.3546 1956.73 71.8537 1956.63 71.019 1956.43C70.5515 1956.33 69.9839 1956.19 69.216 1956.02L68.0807 1955.79L69.1158 1955.32C69.9839 1954.92 70.6517 1954.59 71.1859 1954.32C72.0541 1953.89 72.6217 1953.62 73.2561 1953.42C76.4948 1952.52 79.9005 1952.29 83.3063 1952.75C91.4532 1953.82 99.0994 1951.58 106.245 1949.15C103.306 1941.23 96.8289 1936.86 89.2495 1937.76C85.3096 1938.23 81.3029 1939.16 77.4631 1940.07C75.9606 1940.43 74.4581 1940.77 72.9222 1941.1C71.62 1941.37 70.3846 1941.7 69.0156 1942.04C68.1475 1942.27 67.246 1942.5 66.3111 1942.7L66.0774 1942.77L65.9438 1942.57C65.4096 1941.87 64.8754 1941.17 64.3411 1940.5C63.1057 1938.93 61.9705 1937.5 61.0356 1935.86C55.8269 1926.71 53.2559 1916.96 53.3894 1906.88C53.4896 1896.23 58.0306 1887.48 66.8787 1880.84C70.5182 1878.07 74.8254 1875.83 80.0007 1874.03C94.9591 1868.75 111.019 1867.75 127.747 1871.06C131.788 1871.86 135.694 1873.43 139.467 1874.96L140.435 1875.36C146.145 1877.7 149.183 1882.31 149.684 1889.42C150.118 1895.06 147.814 1901.44 143.674 1906.08C140.836 1909.28 135.761 1913.16 127.848 1913.52C125.744 1913.59 123.574 1913.62 121.504 1913.66C119.801 1913.69 118.131 1913.69 116.462 1913.76C114.625 1913.82 112.856 1914.03 111.453 1915.56C112.689 1918.53 114.826 1920.44 117.263 1922.47C118.832 1923.77 120.469 1924.21 122.539 1923.91C126.946 1923.34 131.52 1922.84 136.529 1922.4C140.001 1922.07 143.24 1921 146.445 1919.13C154.492 1914.36 162.506 1901.57 155.026 1888.08C148.582 1876.43 139.033 1868.85 126.646 1865.58C108.382 1860.71 89.7504 1862.31 71.2527 1870.36C68.1475 1871.69 64.9421 1873.66 61.6366 1876.23C51.8201 1883.81 47.3794 1894.23 48.4812 1907.11C49.5497 1919.37 53.8569 1930.22 61.3361 1939.4C61.9705 1940.17 62.5047 1941 63.0723 1941.9C63.3728 1942.37 63.7067 1942.9 64.074 1943.44L64.3077 1943.81L63.9071 1944.01C63.3728 1944.27 62.9054 1944.47 62.4379 1944.71C61.5364 1945.14 60.7685 1945.47 60.0339 1945.91C59.2326 1946.38 58.4312 1946.81 57.6299 1947.24C55.5597 1948.41 53.3894 1949.58 51.4195 1950.95C49.6165 1952.15 48.8151 1953.02 48.6816 1953.95C48.5146 1954.92 49.0488 1956.09 50.4846 1958.06C56.0606 1965.64 62.9388 1968.78 71.5198 1967.64C75.5265 1967.14 79.6334 1966.88 83.6068 1966.64C84.7086 1966.57 85.7771 1966.51 86.8789 1966.44C87.8806 1966.41 88.8823 1966.47 89.9173 1966.57C90.5183 1966.64 91.1527 1966.71 91.8205 1966.74L92.288 1966.77L92.1544 1967.21C92.0542 1967.54 91.9875 1967.88 91.9541 1968.14C91.7871 1968.95 91.6536 1969.65 91.086 1970.08L90.9524 1970.25C89.4499 1972.05 87.914 1973.95 86.0776 1975.42C84.0742 1977.09 81.9707 1978.69 79.9339 1980.23C78.2979 1981.46 76.6284 1982.73 74.9923 1984.07C72.6551 1985.97 70.0841 1987.24 67.1458 1987.98C61.7034 1989.28 56.695 1992.05 52.2208 1996.19C45.2758 2002.6 40.5346 2010.31 38.1305 2019.12C35.8935 2027.3 35.6931 2036.18 37.4961 2046.2C39.1656 2055.28 43.0054 2063.49 48.9821 2070.61C50.5514 2072.51 52.1874 2074.51 51.72 2077.45C50.8185 2082.89 53.3894 2087.27 55.9938 2090.84C56.9621 2092.17 58.0973 2093.48 59.1658 2094.71C59.8002 2095.48 60.468 2096.21 61.1024 2096.98C61.6032 2097.62 62.104 2098.28 62.6049 2098.95C62.9054 2099.35 63.2059 2099.75 63.5398 2100.19L63.7735 2100.52L63.4396 2100.72C62.8052 2101.12 62.2042 2101.45 61.6366 2101.79C60.2676 2102.56 59.099 2103.26 58.0306 2104.09C57.4629 2104.56 56.8619 2104.99 56.2943 2105.43C53.7567 2107.4 51.119 2109.43 48.8485 2111.77C45.4762 2115.24 45.2758 2117.88 48.0805 2122.15C49.3493 2124.12 50.8852 2125.89 52.1874 2127.33C58.3644 2134.01 66.478 2138.45 76.2945 2140.58C84.4749 2142.35 92.8222 2143.85 100.902 2145.26L106.278 2146.23C114.826 2147.76 123.674 2149.33 131.954 2152.57C132.121 2152.64 132.322 2152.7 132.489 2152.74C133.323 2153 134.492 2153.34 134.592 2155.04V2155.31L134.358 2155.41C134.225 2155.47 134.058 2155.54 133.891 2155.61C133.524 2155.77 133.123 2156.01 132.656 2156.01C124.676 2156.54 116.662 2157.08 108.682 2157.61C100.168 2158.18 91.6536 2158.75 83.1727 2159.31C80.1677 2159.51 78.0641 2158.58 76.5282 2156.31C74.0574 2152.77 70.7853 2149.76 66.8453 2147.43C65.4764 2146.63 63.4396 2145.66 61.4363 2145.56C51.2859 2145.22 41.7366 2148.3 32.1872 2154.91C30.8517 2155.81 30.5178 2157.11 31.2857 2158.54C33.022 2161.75 35.6597 2164.55 39.3659 2167.09C40.8017 2168.06 42.4711 2167.99 44.2742 2167.93C52.2542 2167.59 60.2342 2167.43 67.7134 2167.33C68.5816 2167.29 69.4497 2167.56 70.418 2167.86C70.8854 2167.99 71.3863 2168.16 71.9205 2168.29L72.1876 2168.36V2168.63C72.1876 2169.6 72.2544 2170.53 72.2878 2171.47C72.3546 2173.3 72.4213 2175.04 72.3212 2176.81L71.9873 2181.78C71.4197 2190.9 70.8187 2200.31 69.9171 2209.56C69.1492 2217.77 67.1458 2226.35 63.9738 2235.03C62.3044 2239.64 59.3995 2241.88 54.8252 2242.04C51.8201 2242.14 48.7483 2242.78 45.8101 2243.41L44.9753 2243.58C44.2408 2243.75 43.5396 2244.15 42.7383 2244.65C42.2708 2245.22 41.9703 2245.42 41.6364 2245.58ZM80.7019 2463.19C76.5616 2463.19 72.6551 2461.09 69.6166 2457.25C68.3812 2455.68 67.1792 2453.84 65.9438 2451.61C62.3712 2445.26 60.0005 2438.32 57.9638 2431.78C57.4296 2430.04 57.0289 2428 58.9321 2426.5C65.9104 2421.06 72.3879 2418.56 79.2995 2418.69C87.7136 2418.82 92.0542 2422.06 94.2913 2429.91C95.0593 2432.64 95.5267 2435.48 95.9942 2438.25C96.1945 2439.39 96.3615 2440.52 96.5618 2441.66V2441.69V2441.73C96.2613 2447.5 94.9591 2452.04 92.4215 2455.98C89.6836 2460.32 85.6435 2462.93 81.3029 2463.13C81.1359 2463.19 80.9356 2463.19 80.7019 2463.19ZM58.6983 2431.54C60.7017 2438.05 63.0389 2444.96 66.6116 2451.24C67.847 2453.41 69.0156 2455.25 70.2176 2456.78C73.2561 2460.62 77.1626 2462.63 81.3029 2462.43C85.4432 2462.22 89.1828 2459.79 91.8205 2455.61C94.2579 2451.77 95.5601 2447.37 95.8272 2441.76C95.6269 2440.62 95.4266 2439.52 95.2596 2438.39C94.8256 2435.65 94.3581 2432.81 93.5901 2430.11C91.4532 2422.53 87.4131 2419.52 79.2995 2419.42C72.5549 2419.29 66.2443 2421.76 59.3995 2427.1C57.8636 2428.3 58.2309 2429.97 58.6983 2431.54ZM65.7769 2160.35C65.0089 2160.35 64.2076 2160.35 63.3061 2160.35C62.271 2160.35 61.1691 2160.35 59.9337 2160.35H58.8653L59.7334 2159.68C63.3394 2156.91 66.1441 2156.41 69.2827 2156.54C70.1843 2156.54 70.8854 2158.31 70.9856 2158.64C71.0524 2158.78 71.019 2158.95 70.9188 2159.15C70.6851 2159.58 69.9171 2160.25 69.3495 2160.28C68.1809 2160.31 67.0457 2160.35 65.7769 2160.35ZM61.0356 2159.58C61.8369 2159.58 62.6049 2159.58 63.3061 2159.58C65.6433 2159.58 67.4463 2159.61 69.2827 2159.51C69.5165 2159.51 70.0841 2158.98 70.2176 2158.78C69.8504 2157.84 69.3829 2157.24 69.216 2157.24C66.5114 2157.14 64.0406 2157.51 61.0356 2159.58ZM70.2844 2158.85C70.2844 2158.85 70.2844 2158.88 70.3178 2158.91C70.2844 2158.88 70.2844 2158.88 70.2844 2158.85ZM96.8623 2089.84C96.495 2089.84 96.1611 2089.84 95.7605 2089.8C94.1578 2089.67 92.889 2089.44 91.7537 2089.1C84.3413 2086.83 76.9623 2084.53 68.2143 2081.76C67.7468 2081.62 67.3462 2081.39 66.7785 2081.06C66.478 2080.89 66.1442 2080.69 65.7435 2080.49L65.3762 2080.29L65.6099 2079.95C70.5182 2072.81 75.994 2068.34 82.9056 2065.76C88.1811 2063.8 93.49 2064.2 98.6653 2066.87C104.074 2069.67 107.079 2075.78 106.011 2081.79C105.143 2087.03 101.904 2089.84 96.8623 2089.84ZM66.478 2080.05C66.7452 2080.19 66.9455 2080.32 67.1458 2080.45C67.6801 2080.76 68.0473 2080.99 68.4146 2081.09C77.196 2083.86 84.5417 2086.16 91.9541 2088.43C93.0225 2088.77 94.2579 2088.97 95.7938 2089.1C101.069 2089.5 104.342 2086.97 105.243 2081.72C106.278 2076.05 103.407 2070.24 98.298 2067.6C93.2229 2064.96 88.2812 2064.63 83.1393 2066.53C76.5616 2068.94 71.2527 2073.24 66.478 2080.05ZM72.1876 2038.56L72.0541 2038.35C64.1408 2026.64 65.443 2011.85 75.1593 2002.36C76.8955 2000.7 78.999 1998.79 81.4031 1997.26C83.54 1995.92 85.6769 1995.52 87.6802 1996.12C89.6836 1996.72 91.3197 1998.36 92.3547 2000.7C93.2229 2002.73 93.8239 2004.97 94.1244 2007.21C95.894 2020.26 87.4465 2033.88 74.9255 2038.22C74.3245 2038.42 73.6901 2038.46 73.0891 2038.46C72.822 2038.46 72.5883 2038.46 72.3546 2038.49L72.1876 2038.56ZM85.8438 1996.59C84.5416 1996.59 83.1727 1997.02 81.8371 1997.89C79.4999 1999.36 77.4297 2001.26 75.7269 2002.9C66.3111 2012.08 65.0423 2026.37 72.5883 2037.75C72.7552 2037.75 72.9556 2037.75 73.1225 2037.72C73.6901 2037.69 74.2577 2037.69 74.7586 2037.52C86.7453 2033.38 95.1261 2019.83 93.4566 2007.31C93.1561 2005.14 92.5551 2002.97 91.7203 2001C90.7854 1998.83 89.3163 1997.39 87.5133 1996.82C86.9457 1996.69 86.4114 1996.59 85.8438 1996.59Z" fill="#4B3045"/>
<path d="M118.632 2252.09C118.398 2252.09 118.131 2251.93 117.931 2251.83L117.831 2251.76C112.555 2248.15 106.846 2243.58 106.111 2234.56L106.078 2234.06L106.545 2234.16C110.752 2234.97 113.29 2237.17 115.761 2239.54C118.165 2241.91 120.302 2244.68 122.372 2247.32L122.672 2247.69C123.173 2248.35 123.407 2249.15 123.24 2249.89C123.106 2250.52 122.739 2251.02 122.171 2251.36C121.437 2251.79 120.502 2251.89 119.6 2251.96C119.3 2251.99 119.033 2252.03 118.766 2252.06C118.699 2252.09 118.666 2252.09 118.632 2252.09ZM118.265 2251.16L118.332 2251.19C118.398 2251.26 118.599 2251.36 118.632 2251.36C118.933 2251.32 119.2 2251.29 119.5 2251.26C120.335 2251.19 121.17 2251.12 121.771 2250.76C122.171 2250.52 122.405 2250.19 122.472 2249.79C122.572 2249.25 122.405 2248.65 122.038 2248.15L121.737 2247.79C119.701 2245.15 117.597 2242.41 115.193 2240.07C112.923 2237.87 110.552 2235.83 106.846 2235C107.781 2243.35 112.989 2247.55 118.265 2251.16Z" fill="#4B3045"/>
<path d="M3.94001 132.443C3.40578 132.443 2.83816 132.276 2.33732 131.908C1.26887 131.141 0.534302 129.738 0.534302 128.37V95.8515C0.534302 93.7815 2.30393 91.5113 4.6078 90.6766L53.2226 66.1045L4.54102 41.766C2.30393 40.9313 0.534302 38.6611 0.534302 36.5912V4.07309C0.534302 2.70426 1.26887 1.26866 2.33732 0.534167C3.10528 -1.05258e-05 4.00679 -0.133555 4.84152 0.16692L4.9083 0.200306C5.67625 0.467395 6.41082 0.734484 6.94505 1.23528L96.1946 44.5704L173.825 5.77578L173.858 5.7424C174.092 5.54208 174.426 5.24161 174.96 5.20822C175.661 4.94113 176.429 5.04129 177.097 5.5087C178.199 6.24319 178.933 7.71218 178.933 9.14778V40.9313C178.933 43.2016 177.197 44.0696 175.16 45.0712L137.597 66.1045L175.16 87.3714C177.164 88.373 178.9 89.241 178.9 91.5113V123.295C178.9 124.697 178.099 126.199 177.03 126.934C176.329 127.401 175.594 127.501 174.893 127.234C174.292 127.201 173.992 126.901 173.758 126.667L96.228 87.8722L6.97844 131.241C6.41082 131.742 5.70964 132.009 4.84152 132.276C4.54102 132.376 4.24051 132.443 3.94001 132.443ZM3.90662 0.734484C3.40578 0.734484 3.00511 0.9348 2.738 1.13512C1.86987 1.73607 1.26887 2.93797 1.26887 4.07309V36.5912C1.26887 38.3606 2.83816 40.3304 4.84152 41.0649L54.8253 66.0711L4.87491 91.3444C2.83816 92.1122 1.26887 94.082 1.26887 95.8515V128.37C1.26887 129.505 1.86987 130.707 2.77138 131.308C3.17206 131.575 3.83984 131.875 4.6078 131.575C5.44253 131.308 6.11031 131.04 6.54437 130.64L6.64454 130.573L96.2614 87.0375L174.292 126.066C174.559 126.333 174.693 126.467 175.027 126.467L175.16 126.5C175.761 126.767 176.296 126.533 176.663 126.3C177.564 125.699 178.199 124.43 178.199 123.295V91.5113C178.199 89.7752 176.997 89.1075 174.86 88.0391L136.128 66.1045L174.86 44.4035C177.03 43.3351 178.232 42.634 178.232 40.898V9.14778C178.232 7.97927 177.598 6.71059 176.696 6.14303C176.329 5.90933 175.795 5.67563 175.16 5.94271L175.027 5.9761C174.726 5.9761 174.526 6.14303 174.326 6.30996L174.192 6.41012L96.228 45.4051L96.0611 45.3383L6.54437 1.83622L6.4776 1.80284C6.07692 1.40221 5.37575 1.13512 4.67457 0.901414L4.6078 0.868028C4.34068 0.76787 4.14035 0.734484 3.90662 0.734484Z" fill="#4B3045"/>
<path d="M174.259 191.236H4.47424C2.23716 191.236 0.534302 189.533 0.534302 187.296V157.048C0.534302 154.811 2.23716 153.109 4.47424 153.109H174.259C176.496 153.109 178.199 154.811 178.199 157.048V187.296C178.199 189.566 176.529 191.236 174.259 191.236ZM4.47424 153.876C2.67122 153.876 1.30226 155.245 1.30226 157.048V187.296C1.30226 189.099 2.67122 190.468 4.47424 190.468H174.259C176.062 190.468 177.431 189.099 177.431 187.296V157.048C177.431 155.245 176.062 153.876 174.259 153.876H4.47424Z" fill="#4B3045"/>
<path d="M3.94001 349.886C3.40578 349.886 2.83817 349.686 2.33733 349.319C1.26887 348.518 0.534305 347.015 0.534305 345.613V316.634C0.534305 314.464 2.43749 312.527 4.30729 311.726L24.6748 305.683V255.17L4.34068 249.16C2.47088 248.393 0.500916 246.523 0.500916 244.253V215.274C0.500916 213.938 1.23548 212.436 2.30394 211.634C3.00511 211.1 3.80646 210.9 4.50763 211.1L174.76 261.413L175.127 261.447C177.331 262.415 178.9 263.283 178.9 265.353V295.634C178.9 298.004 176.863 298.973 175.094 299.54H174.96H174.76C153.457 305.817 132.088 312.127 110.719 318.437C75.2929 328.886 39.8669 339.336 4.47424 349.786C4.34068 349.853 4.14035 349.886 3.94001 349.886ZM3.94001 211.768C3.47256 211.768 3.0385 212.002 2.77139 212.235C1.86988 212.903 1.26887 214.172 1.26887 215.307V244.286C1.26887 246.156 2.93833 247.825 4.6078 248.493L25.4427 254.669V306.317L4.57441 312.494C2.97172 313.195 1.26887 314.864 1.26887 316.701V345.68C1.26887 346.815 1.90327 348.117 2.77139 348.785C3.13867 349.052 3.70629 349.352 4.34068 349.152C39.6999 338.702 75.1594 328.252 110.585 317.802C131.955 311.492 153.324 305.182 174.659 298.906H174.76H174.96C177.23 298.138 178.199 297.203 178.199 295.734V265.453C178.199 263.984 177.197 263.283 174.927 262.281H174.626L4.34068 211.801C4.20713 211.768 4.07357 211.768 3.94001 211.768ZM58.999 296.302V264.585L112.789 280.577L58.999 296.302ZM59.7335 265.586V295.333L110.151 280.577L59.7335 265.586Z" fill="#4B3045"/>
<path d="M23.8733 483.564C22.6713 483.564 20.0335 483.264 17.6629 480.86L3.43907 466.37C0.333865 463.266 0.534201 459.86 0.534201 459.727V393.923C0.534201 393.789 0.300476 390.183 3.43907 387.045L17.6629 372.823C20.7681 369.718 24.4075 369.918 24.5745 369.918H154.96C155.093 369.918 158.699 369.684 161.838 372.823L176.062 387.045C179.434 390.15 179 393.822 178.967 393.989V459.526C179 459.626 179.467 463.266 176.028 466.437L161.804 480.893C158.766 483.931 155.26 483.598 154.893 483.564H24.5411C24.5077 483.531 24.274 483.564 23.8733 483.564ZM24.4075 370.619C23.7398 370.619 20.7347 370.753 18.1971 373.323L3.9733 387.546C1.06843 390.45 1.26877 393.856 1.26877 393.889V459.76C1.26877 459.827 1.10182 462.998 3.9733 465.87L18.1971 480.359C21.102 483.264 24.4743 482.796 24.5077 482.796H154.993H155.026C155.06 482.796 158.499 483.197 161.337 480.359L175.561 465.87C178.699 462.965 178.265 459.593 178.265 459.56V393.923C178.265 393.856 178.666 390.417 175.594 387.579L161.37 373.357C158.466 370.452 155.06 370.652 155.026 370.652H24.5411C24.5411 370.619 24.5077 370.619 24.4075 370.619ZM134.692 446.138C134.525 446.138 134.425 446.138 134.358 446.105H43.6398C43.0722 446.105 42.4378 446.105 41.5696 445.237L37.8968 441.565V411.751L41.6364 408.045C42.4044 407.544 42.972 407.244 43.6398 407.244H134.358C134.392 407.244 135.494 407.244 136.596 408.078L140.702 412.385C141.571 413.019 141.571 413.921 141.571 414.188V439.094C141.571 439.394 141.571 440.296 140.702 441.164L136.629 445.237C135.894 446.005 135.126 446.138 134.692 446.138ZM134.459 445.404C134.492 445.404 135.293 445.571 136.128 444.77L140.202 440.696C140.836 440.062 140.836 439.394 140.836 439.161V414.255C140.836 414.021 140.836 413.42 140.235 413.019L140.168 412.953L136.095 408.646C135.26 408.045 134.358 408.011 134.358 408.011H43.6398C43.2391 408.011 42.8384 408.212 42.0705 408.679L38.6648 412.085V441.264L42.1039 444.703C42.7383 445.337 43.1389 445.337 43.6398 445.337H134.425L134.459 445.404Z" fill="#4B3045"/>
<path d="M4.47417 653.032C2.20369 653.032 0.534229 651.329 0.534229 649.093V619.112C0.534229 616.808 2.30386 614.939 4.47417 614.939L66.4113 613.97L3.83977 595.074C1.96997 594.306 0 592.436 0 590.166V569.834C0 567.63 1.93658 565.727 3.7396 564.692L3.80638 564.659L66.3779 546.03L4.44078 544.794C2.20369 544.794 0.534229 543.092 0.534229 540.855V510.607C0.534229 508.704 2.10353 506.667 4.47417 506.667L174.259 513.512H175.027H175.06C176.195 513.812 177.063 514.38 177.564 515.214L177.631 515.314V515.415C177.631 515.481 177.631 515.515 177.631 515.548C177.631 515.548 177.698 515.615 177.765 515.682L177.865 515.782V515.949C177.865 516.216 177.865 516.316 177.998 516.416L178.132 516.516V548.934C178.132 551.405 176.362 552.406 174.593 553.107L76.4281 576.01L58.2977 578.414L76.3947 580.117L174.559 606.826C176.963 607.36 178.132 608.729 178.132 610.999V643.417L178.032 643.517C177.865 643.684 177.865 643.818 177.865 644.018V644.385H177.598L177.531 644.485C176.963 645.32 176.095 645.887 175.027 646.155H174.926H174.659C174.559 646.321 174.392 646.422 174.125 646.422L4.47417 653.032ZM4.07349 565.327C2.43742 566.262 0.734564 567.931 0.734564 569.801V590.133C0.734564 592.002 2.40403 593.672 4.07349 594.339L71.1526 614.571L4.47417 615.606C2.70453 615.606 1.26879 617.142 1.26879 619.045V649.026C1.26879 650.829 2.63775 652.197 4.44078 652.197L174.092 645.62V645.353H174.926C175.761 645.12 176.429 644.686 176.896 644.051C176.93 643.884 177.03 643.751 177.164 643.651C177.197 643.45 177.23 643.25 177.431 643.016V610.899C177.431 609.029 176.462 607.927 174.426 607.427L76.2945 580.751L51.7534 578.448L76.3279 575.209L174.392 552.34C176.529 551.505 177.397 550.537 177.397 548.867V516.75C177.197 516.483 177.13 516.216 177.13 516.016C176.93 515.815 176.863 515.715 176.863 515.448C176.462 514.847 175.795 514.413 174.893 514.179H174.192L4.40739 507.335C2.53759 507.335 1.2354 509.004 1.2354 510.507V540.855C1.2354 542.658 2.60436 544.026 4.40739 544.026L71.0858 545.329L4.07349 565.327Z" fill="#4B3045"/>
<path d="M174.259 713.728H4.47424C2.23716 713.728 0.534302 712.025 0.534302 709.788V679.541C0.534302 677.304 2.23716 675.601 4.47424 675.601H174.259C176.496 675.601 178.199 677.304 178.199 679.541V709.788C178.199 712.059 176.529 713.728 174.259 713.728ZM4.47424 676.369C2.67122 676.369 1.30226 677.738 1.30226 679.541V709.788C1.30226 711.591 2.67122 712.96 4.47424 712.96H174.259C176.062 712.96 177.431 711.591 177.431 709.788V679.541C177.431 677.738 176.062 676.369 174.259 676.369H4.47424Z" fill="#4B3045"/>
<path d="M51.3861 945.728C51.1858 945.728 50.9855 945.661 50.8185 945.561C50.084 945.127 49.6833 943.925 49.6833 942.957V922.157C49.6833 920.789 50.4846 919.32 51.5531 918.719L72.989 903.094L51.5197 887.603C50.4846 887.035 49.6833 885.566 49.6833 884.197V863.398C49.6833 862.43 50.084 861.261 50.8185 860.794C51.1524 860.593 51.5531 860.594 51.9204 860.76C52.2209 860.894 52.6215 861.094 52.8887 861.462L92.3882 889.072L126.679 864.366C126.813 864.199 126.979 863.965 127.28 863.932C127.58 863.799 127.881 863.799 128.182 863.965C128.916 864.366 129.317 865.635 129.317 866.57V886.902C129.317 888.404 128.482 889.005 127.58 889.639L110.986 902.994L127.58 916.515C128.449 917.116 129.283 917.717 129.283 919.253V939.585C129.283 940.553 128.883 941.788 128.148 942.189C127.848 942.356 127.547 942.356 127.247 942.222C126.913 942.189 126.712 941.955 126.612 941.788L92.3214 917.083L52.8553 944.693C52.5882 945.16 52.1875 945.394 51.8202 945.561C51.72 945.695 51.5531 945.728 51.3861 945.728ZM51.3528 861.395C51.286 861.395 51.2192 861.428 51.1524 861.462C50.7184 861.729 50.3845 862.597 50.3845 863.398V884.197C50.3845 885.433 51.1524 886.568 51.887 886.969L74.2244 903.094L51.9204 919.353C51.1524 919.787 50.3845 920.922 50.3845 922.157V942.957C50.3845 943.792 50.7184 944.66 51.1524 944.893C51.286 944.96 51.3861 944.96 51.5197 944.893C51.887 944.726 52.0873 944.593 52.2543 944.259L52.2877 944.192L52.3544 944.125L92.3214 916.181L127.18 941.321C127.247 941.455 127.28 941.488 127.313 941.488H127.414L127.514 941.555C127.614 941.621 127.647 941.621 127.747 941.555C128.115 941.354 128.515 940.486 128.515 939.585V919.253C128.515 918.118 127.948 917.717 127.113 917.116L109.784 902.994L127.113 889.038C127.981 888.438 128.549 888.037 128.549 886.902V866.57C128.549 865.668 128.148 864.8 127.781 864.6C127.681 864.533 127.614 864.533 127.547 864.6L127.447 864.667H127.347C127.313 864.667 127.28 864.767 127.213 864.8L127.08 864.934L92.3214 889.973L52.2543 861.929C52.0539 861.695 51.7868 861.528 51.4863 861.395C51.4863 861.428 51.4195 861.395 51.3528 861.395Z" fill="#4B3045"/>
</g>
<defs>
<clipPath id="clip0_779_1086">
<rect width="179" height="2552" fill="white"/>
</clipPath>
</defs>
</svg>
