<svg width="33" height="33" viewBox="0 0 33 33" fill="none" xmlns="http://www.w3.org/2000/svg">
<path d="M15.8918 20.4777H16.7734C16.7734 20.4777 17.0396 20.4466 17.1758 20.2911C17.3009 20.1482 17.2969 19.88 17.2969 19.88C17.2969 19.88 17.2797 18.624 17.8287 18.4391C18.37 18.2568 19.065 19.6529 19.8017 20.1897C20.3587 20.5959 20.7821 20.507 20.7821 20.507L22.7519 20.4777C22.7519 20.4777 23.7823 20.4102 23.2937 19.5501C23.2537 19.4799 23.0091 18.9139 21.829 17.7511C20.5938 16.534 20.7594 16.7309 22.2472 14.6256C23.1533 13.3435 23.5155 12.5608 23.4023 12.2256C23.2945 11.9062 22.628 11.9906 22.628 11.9906L20.4101 12.0052C20.4101 12.0052 20.2456 11.9814 20.1237 12.0588C20.0045 12.1345 19.928 12.3114 19.928 12.3114C19.928 12.3114 19.5768 13.3035 19.1089 14.1473C18.1213 15.9276 17.7263 16.0219 17.5648 15.9112C17.1893 15.6535 17.2831 14.8762 17.2831 14.3238C17.2831 12.5984 17.5296 11.879 16.8031 11.6928C16.562 11.631 16.3844 11.5902 15.7678 11.5835C14.9764 11.575 14.3068 11.5861 13.9275 11.7834C13.6752 11.9145 13.4805 12.2068 13.5991 12.2236C13.7457 12.2443 14.0776 12.3187 14.2536 12.5729C14.481 12.9013 14.473 13.6384 14.473 13.6384C14.473 13.6384 14.6036 15.6695 14.168 15.9217C13.8691 16.0948 13.4589 15.7415 12.5784 14.1263C12.1274 13.2989 11.7867 12.3843 11.7867 12.3843C11.7867 12.3843 11.7211 12.2134 11.6039 12.1219C11.4618 12.0111 11.2632 11.976 11.2632 11.976L9.15558 11.9906C9.15558 11.9906 8.83924 12 8.72301 12.146C8.6196 12.276 8.71475 12.5446 8.71475 12.5446C8.71475 12.5446 10.3647 16.6429 12.2331 18.7082C13.9465 20.602 15.8918 20.4777 15.8918 20.4777Z" fill="#C35AB8"/>
<path d="M29.9573 15.7662C29.9573 23.4389 23.7373 29.659 16.0645 29.659C8.39171 29.659 2.17168 23.4389 2.17168 15.7662C2.17168 8.09337 8.39171 1.87334 16.0645 1.87334C23.7373 1.87334 29.9573 8.09337 29.9573 15.7662Z" stroke="#C35AB8" stroke-width="1.4"/>
</svg>
