<svg width="35" height="26" viewBox="0 0 35 26" fill="none" xmlns="http://www.w3.org/2000/svg">
<path d="M33.4905 4.99095C33.3113 4.25884 32.9464 3.58805 32.4326 3.04634C31.9188 2.50462 31.2744 2.11117 30.5643 1.90571C27.97 1.25781 17.5926 1.25781 17.5926 1.25781C17.5926 1.25781 7.21522 1.25781 4.62088 1.96742C3.91082 2.17287 3.26635 2.56632 2.75257 3.10804C2.23878 3.64975 1.87387 4.32054 1.6947 5.05266C1.2199 7.74538 0.987643 10.477 1.00086 13.2131C0.983938 15.9698 1.2162 18.7223 1.6947 21.4353C1.89223 22.1446 2.26531 22.7899 2.7779 23.3088C3.29049 23.8276 3.92526 24.2024 4.62088 24.3971C7.21522 25.1067 17.5926 25.1067 17.5926 25.1067C17.5926 25.1067 27.97 25.1067 30.5643 24.3971C31.2744 24.1917 31.9188 23.7982 32.4326 23.2565C32.9464 22.7148 33.3113 22.044 33.4905 21.3119C33.9616 18.6394 34.1939 15.9286 34.1843 13.2131C34.2012 10.4564 33.969 7.70395 33.4905 4.99095V4.99095Z" stroke="#C35AB8" stroke-width="1.4" stroke-linecap="round" stroke-linejoin="round"/>
<path d="M14.1987 18.2572L22.8717 13.2128L14.1987 8.16846V18.2572Z" fill="#C35AB8"/>
</svg>
